PathFileType	4	(X/Y/Z)	C:\Users\86182\Documents\cortex\Trimmed_M3_L13.trc
DataRate	CameraRate	NumFrames	NumMarkers	Units	OrigDataRate	OrigDataStartFrame	OrigNumFrames
100.00	100.00	       84	2	mm	100.00	361	       901
Frame#	Time	gripper			box			
		X1	Y1	Z1	X2	Y2	Z2	

361	3.600	273.47385	149.81012	292.83908	274.91467	148.01183	157.23761	
362	3.610	273.50092	149.79970	292.82275	274.86938	148.03116	157.17947	
363	3.620	273.47903	149.81355	292.83054	274.83368	148.05661	157.17709	
364	3.630	273.50052	149.81229	292.81821	274.93198	148.04939	157.17636	
365	3.640	273.43698	149.81322	292.85889	274.86487	148.08838	157.23999	
366	3.650	273.42563	149.81004	292.87115	274.92581	148.14589	157.27454	
367	3.660	273.46271	149.80116	292.85989	275.00400	148.08031	157.27292	
368	3.670	273.46866	149.79173	292.87006	275.10721	148.10248	157.30817	
369	3.680	273.44403	149.79701	292.87848	275.08734	148.10333	157.33434	
370	3.690	273.46866	149.79173	292.87006	275.05927	148.09680	157.30673	
371	3.700	273.48322	149.79248	292.85931	275.15958	148.05322	157.23750	
372	3.710	273.47330	149.79146	292.86743	275.04538	148.06941	157.25967	
373	3.720	273.48141	149.79860	292.85135	275.03354	148.02965	157.20798	
374	3.730	273.50964	149.80304	292.82599	274.90182	148.05188	157.17598	
375	3.740	273.48254	149.80104	292.84695	274.90720	148.01256	157.24194	
376	3.750	273.50217	149.79997	292.83554	274.89481	148.01118	157.24284	
377	3.760	273.49432	149.80040	292.84012	274.93814	148.01016	157.22322	
378	3.770	273.46182	149.79466	292.87024	274.95059	148.11609	157.26289	
379	3.780	273.44800	149.79906	292.87280	275.06345	148.06380	157.25755	
380	3.790	273.46866	149.79173	292.87006	275.09164	148.09624	157.31328	
381	3.800	273.45044	149.79950	292.87051	275.07803	148.08052	157.31683	
382	3.810	273.45270	149.79854	292.87048	275.06976	148.09840	157.31139	
383	3.820	273.45728	149.79660	292.87036	275.00876	148.05904	157.27884	
384	3.830	273.43600	149.80945	292.86517	274.97369	148.04829	157.25786	
385	3.840	273.45859	149.79988	292.86456	274.92484	148.06477	157.22878	
386	3.850	273.45728	149.79660	292.87036	274.86926	148.02354	157.25609	
387	3.860	273.47922	149.80760	292.83932	274.92017	148.01277	157.23273	
388	3.870	273.46243	149.79900	292.86334	274.95178	148.04875	157.25327	
389	3.880	273.46866	149.79173	292.87006	275.00259	148.05743	157.27727	
390	3.890	273.46866	149.79173	292.87006	275.02335	148.05641	157.28065	
391	3.900	273.46866	149.79173	292.87006	275.06583	148.08356	157.28505	
392	3.910	273.46866	149.79173	292.87006	275.15527	148.11073	157.30098	
393	3.920	273.46866	149.79173	292.87006	275.10861	148.08820	157.27194	
394	3.930	273.46866	149.79173	292.87006	275.04849	148.06003	157.26271	
395	3.940	273.47028	149.79182	292.86887	275.02225	148.04044	157.26714	
396	3.950	273.47290	149.79303	292.86533	275.02237	148.05640	157.24174	
397	3.960	273.45175	149.80276	292.86475	274.99014	148.04390	157.22032	
398	3.970	273.47299	149.80058	292.85394	274.95032	148.04373	157.25281	
399	3.980	273.45819	149.80307	292.86005	274.98651	148.06699	157.25641	
400	3.990	273.45270	149.79854	292.87048	274.94769	148.02873	157.25703	
401	4.000	273.45953	149.79562	292.87030	274.93243	148.07446	157.27776	
402	4.010	273.46640	149.79271	292.87012	274.94507	148.07477	157.28328	
403	4.020	273.41617	149.80299	292.88803	274.97797	148.05824	157.30528	
404	4.030	273.46161	149.79326	292.87250	274.95758	148.05078	157.29871	
405	4.040	273.46866	149.79173	292.87006	274.99515	148.05490	157.30905	
406	4.050	273.45044	149.79950	292.87051	275.03354	148.09566	157.30432	
407	4.060	273.46182	149.79466	292.87024	275.01212	148.07124	157.26712	
408	4.070	273.48660	149.79646	292.85110	275.02808	148.08455	157.27518	
409	4.080	273.47327	149.80270	292.85059	275.01245	148.05743	157.25211	
410	4.090	273.46460	149.80338	292.85535	274.97855	148.06976	157.24951	
411	4.100	273.46960	149.80154	292.85477	275.04947	148.07901	157.23901	
412	4.110	273.47528	149.79962	292.85388	275.05054	148.11118	157.23270	
413	4.120	273.46118	149.79570	292.86911	275.01859	148.09483	157.27252	
414	4.130	273.47195	149.79190	292.86768	275.07993	148.09746	157.28137	
415	4.140	273.46051	149.79675	292.86795	275.00546	148.07048	157.30684	
416	4.150	273.46866	149.79173	292.87006	275.01218	148.08005	157.30345	
417	4.160	273.46182	149.79466	292.87024	275.01025	148.13589	157.29980	
418	4.170	273.45758	149.79877	292.86688	275.00668	148.08960	157.28601	
419	4.180	273.44589	149.80144	292.87064	275.03232	148.08212	157.28975	
420	4.190	273.47751	149.79771	292.85526	274.87308	148.02446	157.27330	
421	4.200	273.45422	149.81110	292.85065	274.78998	148.07845	157.25098	
422	4.210	273.42618	149.81375	292.86523	274.95480	148.06113	157.25853	
423	4.220	273.47821	149.79762	292.85492	274.89957	148.02730	157.25157	
424	4.230	273.45047	149.80484	292.86252	275.00552	148.09793	157.27728	
425	4.240	273.46530	149.80234	292.85641	274.98083	148.08022	157.28299	
426	4.250	273.46866	149.79173	292.87006	274.98120	148.06496	157.26813	
427	4.260	273.47913	149.79779	292.85410	275.00906	148.06499	157.29222	
428	4.270	273.48026	149.79697	292.85455	275.04855	148.07712	157.26758	
429	4.280	273.46695	149.79707	292.86319	274.98990	148.04504	157.26068	
430	4.290	273.48666	149.79482	292.85355	275.01294	148.05048	157.24895	
431	4.300	273.49969	149.80040	292.83652	274.95511	148.02101	157.23903	
432	4.310	273.51010	149.80232	292.82678	275.08594	148.09343	157.23683	
433	4.320	273.51614	149.80501	292.81876	275.03702	148.05531	157.22617	
434	4.330	273.49506	149.80945	292.82605	274.95972	148.01076	157.21817	
435	4.340	273.51190	149.80132	292.82709	274.96771	148.00262	157.24063	
436	4.350	273.50073	149.80283	292.83221	275.02084	148.02744	157.21452	
437	4.360	273.47928	149.81233	292.83221	275.09848	148.07901	157.24612	
438	4.370	273.44577	149.81148	292.85568	275.04944	148.07097	157.28824	
439	4.380	273.46103	149.81158	292.84543	275.07941	148.06111	157.22252	
440	4.390	273.48059	149.81361	292.82941	274.97031	148.02339	157.23616	
441	4.400	273.47171	149.81419	292.83441	275.00452	148.03416	157.23477	
442	4.410	273.46832	149.81357	292.83762	275.02023	148.04352	157.21457	
443	4.420	273.49612	149.81258	292.82068	275.05222	148.05945	157.20099	
444	4.430	273.47971	149.81334	292.83041	274.94962	148.04329	157.24094	
